<?xml version="1.0" encoding="UTF-8"?>
<svg xmlns="http://www.w3.org/2000/svg" viewBox="0 0 202 27">
  <defs>
    <style>
      .cls {
      fill: #FFFFFF;
      }
    </style>
  </defs>
  <path class="cls"
    d="M6.58,20.83c-.63,0-1.29-.16-1.98-.49-.68-.33-1.32-.77-1.9-1.34h-.1l-.26,1.46H0V0H2.96V5.42l-.1,2.41c.62-.55,1.29-.99,2.02-1.34,.73-.34,1.46-.51,2.2-.51,1.2,0,2.21,.3,3.04,.89s1.46,1.43,1.9,2.5,.66,2.35,.66,3.8c0,1.61-.29,2.99-.86,4.14-.57,1.15-1.32,2.02-2.25,2.62-.93,.6-1.92,.9-2.98,.9Zm-.57-2.49c.68,0,1.3-.2,1.84-.59,.54-.39,.97-.97,1.28-1.73,.32-.76,.48-1.69,.48-2.79,0-.99-.12-1.85-.35-2.56-.23-.71-.59-1.26-1.07-1.64s-1.11-.58-1.9-.58c-.55,0-1.1,.14-1.64,.42-.55,.28-1.11,.72-1.7,1.3v6.91c.53,.46,1.07,.79,1.61,.98,.54,.19,1.02,.28,1.45,.28Z" />
  <path class="cls"
    d="M19.09,20.83c-.72,0-1.29-.15-1.72-.45-.43-.3-.74-.73-.92-1.28-.19-.56-.28-1.21-.28-1.97V0h2.96V17.29c0,.39,.07,.67,.22,.83,.15,.16,.3,.24,.48,.24,.07,0,.14,0,.21-.01,.07,0,.17-.02,.31-.04l.36,2.24c-.17,.07-.38,.13-.64,.19s-.57,.09-.95,.09Z" />
  <path class="cls"
    d="M29.49,20.83c-1.17,0-2.26-.3-3.28-.89-1.02-.59-1.84-1.44-2.47-2.54-.63-1.1-.94-2.44-.94-4s.31-2.92,.94-4.02c.62-1.1,1.45-1.95,2.47-2.53,1.02-.58,2.11-.87,3.28-.87,.86,0,1.69,.17,2.49,.5,.8,.33,1.52,.82,2.13,1.45,.62,.63,1.11,1.41,1.46,2.32,.36,.92,.54,1.97,.54,3.15,0,1.56-.31,2.89-.94,4-.62,1.1-1.44,1.95-2.44,2.54-1,.59-2.08,.89-3.25,.89Zm0-2.47c.74,0,1.38-.21,1.91-.62,.54-.41,.96-.99,1.25-1.73,.29-.75,.44-1.61,.44-2.61s-.15-1.86-.44-2.61-.71-1.33-1.25-1.75c-.54-.42-1.18-.63-1.91-.63s-1.4,.21-1.94,.63c-.54,.42-.96,1-1.25,1.75s-.44,1.61-.44,2.61,.15,1.86,.44,2.61c.29,.74,.71,1.32,1.25,1.73,.54,.41,1.19,.62,1.94,.62Z" />
  <path class="cls"
    d="M44.47,26.82c-1.13,0-2.14-.14-3.03-.42-.89-.28-1.59-.7-2.09-1.25-.51-.55-.76-1.23-.76-2.06,0-.6,.18-1.17,.54-1.7,.36-.53,.86-.99,1.52-1.39v-.1c-.36-.24-.66-.55-.91-.94s-.37-.86-.37-1.43,.17-1.07,.5-1.53,.7-.82,1.09-1.09v-.1c-.5-.38-.93-.89-1.31-1.54-.38-.65-.57-1.4-.57-2.23,0-1.06,.25-1.97,.76-2.74,.5-.76,1.17-1.34,2-1.73,.83-.39,1.73-.59,2.71-.59,.41,0,.79,.03,1.14,.09,.35,.06,.66,.14,.91,.24h5.01v2.23h-2.67c.26,.29,.47,.66,.64,1.1,.17,.45,.26,.93,.26,1.46,0,1.03-.24,1.91-.71,2.63-.47,.73-1.11,1.28-1.91,1.67-.81,.39-1.7,.58-2.67,.58-.31,0-.64-.04-.99-.12-.35-.08-.68-.18-.99-.3-.22,.19-.41,.39-.55,.62-.15,.22-.22,.51-.22,.85,0,.41,.17,.75,.5,1s.95,.39,1.86,.39h2.62c1.66,0,2.92,.27,3.78,.81,.86,.54,1.28,1.41,1.28,2.61,0,.91-.3,1.74-.9,2.49-.6,.75-1.45,1.35-2.56,1.8-1.11,.44-2.41,.67-3.92,.67Zm.41-1.95c.84,0,1.56-.12,2.16-.36,.6-.24,1.07-.55,1.41-.94s.51-.79,.51-1.22c0-.6-.22-1.01-.67-1.22-.45-.21-1.1-.32-1.95-.32h-2.13c-.34,0-.67-.02-.98-.05-.31-.03-.62-.09-.92-.15-.41,.31-.71,.64-.9,1s-.28,.71-.28,1.05c0,.69,.33,1.22,1,1.62,.67,.39,1.58,.59,2.75,.59Zm-.33-10.79c.48,0,.92-.12,1.34-.36s.74-.59,.98-1.04c.24-.45,.36-1,.36-1.63s-.12-1.17-.36-1.61c-.24-.44-.56-.77-.96-1.02-.4-.24-.85-.36-1.35-.36s-.95,.12-1.35,.36c-.4,.24-.72,.58-.96,1.02-.24,.44-.36,.97-.36,1.61s.12,1.18,.37,1.63c.25,.45,.57,.8,.98,1.04s.84,.36,1.32,.36Z" />
  <path class="cls"
    d="M56.06,20.83c-.55,0-1.01-.2-1.4-.6-.38-.4-.58-.9-.58-1.5s.19-1.12,.58-1.5c.39-.39,.85-.58,1.4-.58s1.04,.19,1.43,.58c.39,.39,.58,.89,.58,1.5s-.19,1.1-.58,1.5-.86,.6-1.43,.6Z" />
  <path class="cls"
    d="M65.95,20.83c-.96,0-1.91-.19-2.87-.57-.95-.38-1.77-.85-2.45-1.41l1.41-1.93c.62,.5,1.25,.9,1.89,1.19,.64,.3,1.34,.45,2.09,.45,.84,0,1.46-.18,1.86-.55,.4-.37,.6-.82,.6-1.35,0-.43-.15-.79-.45-1.08-.3-.29-.69-.54-1.17-.76-.48-.21-.98-.42-1.49-.6-.63-.24-1.25-.53-1.86-.86-.61-.33-1.11-.76-1.5-1.28-.39-.52-.59-1.18-.59-1.97s.2-1.52,.6-2.13,.98-1.1,1.73-1.46c.75-.36,1.65-.54,2.7-.54,.94,0,1.8,.16,2.58,.49,.78,.33,1.44,.72,1.99,1.18l-1.36,1.82c-.5-.36-1-.65-1.52-.89-.51-.23-1.05-.35-1.62-.35-.79,0-1.37,.17-1.75,.5-.38,.33-.57,.75-.57,1.25,0,.39,.14,.72,.41,.98,.27,.26,.64,.48,1.09,.67s.94,.39,1.45,.59c.5,.17,.99,.37,1.48,.6,.49,.23,.93,.51,1.32,.82,.39,.32,.71,.7,.96,1.16,.25,.45,.37,1.01,.37,1.68,0,.79-.21,1.52-.62,2.18s-1.01,1.19-1.8,1.58c-.79,.39-1.77,.58-2.95,.58Z" />
  <path class="cls"
    d="M77.79,20.83c-.81,0-1.52-.17-2.15-.51-.62-.34-1.12-.82-1.48-1.44-.36-.62-.54-1.34-.54-2.16,0-1.52,.67-2.7,2.02-3.53,1.34-.83,3.49-1.41,6.44-1.73-.02-.55-.1-1.05-.26-1.52-.15-.46-.42-.83-.81-1.12-.38-.28-.93-.42-1.63-.42s-1.45,.15-2.13,.44c-.68,.29-1.34,.63-1.95,1l-1.1-2c.5-.31,1.04-.6,1.64-.89s1.24-.51,1.93-.69c.68-.18,1.4-.27,2.13-.27,1.18,0,2.15,.24,2.9,.71,.75,.47,1.31,1.15,1.68,2.04,.37,.89,.55,1.97,.55,3.24v8.5h-2.42l-.23-1.62h-.1c-.63,.55-1.33,1.02-2.08,1.4-.75,.39-1.56,.58-2.42,.58Zm.9-2.36c.62,0,1.19-.14,1.72-.42,.53-.28,1.09-.7,1.67-1.25v-3.44c-1.39,.15-2.49,.38-3.31,.68-.82,.3-1.41,.65-1.76,1.05-.35,.4-.53,.87-.53,1.4,0,.7,.21,1.21,.64,1.52,.43,.31,.95,.46,1.57,.46Z" />
  <path class="cls"
    d="M93.97,20.83c-1.06,0-1.91-.21-2.53-.63-.62-.42-1.08-1-1.35-1.75-.27-.75-.41-1.61-.41-2.61v-7.14h-2.06v-2.21l2.21-.18,.33-3.9h2.47v3.9h3.67v2.39h-3.67v7.17c0,.84,.16,1.48,.49,1.91,.33,.44,.86,.66,1.59,.66,.24,0,.5-.03,.77-.1,.27-.07,.51-.15,.72-.23l.54,2.18c-.38,.12-.8,.24-1.27,.36-.47,.12-.97,.18-1.5,.18Z" />
  <path class="cls"
    d="M105.07,20.83c-1.17,0-2.26-.3-3.28-.89-1.02-.59-1.84-1.44-2.47-2.54-.62-1.1-.94-2.44-.94-4s.31-2.92,.94-4.02c.62-1.1,1.45-1.95,2.47-2.53,1.02-.58,2.11-.87,3.28-.87,.86,0,1.69,.17,2.49,.5,.81,.33,1.52,.82,2.13,1.45s1.1,1.41,1.46,2.32c.36,.92,.54,1.97,.54,3.15,0,1.56-.31,2.89-.94,4-.63,1.1-1.44,1.95-2.44,2.54-1,.59-2.09,.89-3.25,.89Zm0-2.47c.74,0,1.37-.21,1.91-.62,.54-.41,.95-.99,1.25-1.73,.29-.75,.44-1.61,.44-2.61s-.15-1.86-.44-2.61-.71-1.33-1.25-1.75c-.54-.42-1.18-.63-1.91-.63s-1.4,.21-1.94,.63c-.54,.42-.96,1-1.25,1.75-.29,.75-.44,1.61-.44,2.61s.15,1.86,.44,2.61c.29,.74,.71,1.32,1.25,1.73,.54,.41,1.19,.62,1.94,.62Z" />
  <path class="cls"
    d="M120.87,20.83c-1.17,0-2.26-.3-3.28-.89-1.02-.59-1.84-1.44-2.47-2.54-.63-1.1-.94-2.44-.94-4s.31-2.92,.94-4.02c.62-1.1,1.45-1.95,2.47-2.53,1.02-.58,2.11-.87,3.28-.87,.86,0,1.69,.17,2.49,.5,.8,.33,1.52,.82,2.13,1.45,.62,.63,1.11,1.41,1.46,2.32,.36,.92,.54,1.97,.54,3.15,0,1.56-.31,2.89-.94,4-.62,1.1-1.44,1.95-2.44,2.54-1,.59-2.08,.89-3.25,.89Zm0-2.47c.74,0,1.38-.21,1.91-.62,.54-.41,.96-.99,1.25-1.73,.29-.75,.44-1.61,.44-2.61s-.15-1.86-.44-2.61-.71-1.33-1.25-1.75c-.54-.42-1.18-.63-1.91-.63s-1.4,.21-1.94,.63c-.54,.42-.96,1-1.25,1.75s-.44,1.61-.44,2.61,.15,1.86,.44,2.61c.29,.74,.71,1.32,1.25,1.73,.54,.41,1.19,.62,1.94,.62Z" />
  <path class="cls"
    d="M130.99,20.48V6.32h2.42l.26,2.54h.05c.51-.91,1.12-1.61,1.82-2.12,.7-.5,1.44-.76,2.21-.76,.34,0,.63,.03,.87,.08,.24,.05,.47,.12,.69,.21l-.51,2.59c-.26-.09-.49-.15-.69-.18-.21-.03-.45-.05-.75-.05-.57,0-1.17,.23-1.8,.68-.63,.45-1.17,1.25-1.62,2.38v8.79h-2.95Z" />
  <path class="cls"
    d="M145.66,20.83c-1.51,0-2.61-.49-3.31-1.46-.7-.98-1.05-2.35-1.05-4.14V6.32h2.98V14.87c0,1.2,.19,2.06,.57,2.59,.38,.53,.98,.8,1.8,.8,.65,0,1.23-.17,1.75-.5s1.06-.87,1.64-1.61V6.32h2.98v14.16h-2.44l-.23-2.13h-.08c-.65,.74-1.34,1.34-2.05,1.8-.72,.46-1.57,.69-2.54,.69Z" />
  <path class="cls"
    d="M159.02,20.83c-.55,0-1.01-.2-1.4-.6s-.58-.9-.58-1.5,.19-1.12,.58-1.5c.39-.39,.85-.58,1.4-.58s1.04,.19,1.43,.58c.38,.39,.58,.89,.58,1.5s-.19,1.1-.58,1.5c-.39,.4-.86,.6-1.43,.6Z" />
  <path class="cls"
    d="M165.08,20.48V6.32h2.42l.26,2h.05c.62-.65,1.28-1.2,1.99-1.66,.71-.45,1.51-.68,2.4-.68,1.04,0,1.88,.23,2.49,.68,.62,.45,1.08,1.09,1.39,1.91,.7-.75,1.43-1.37,2.17-1.86,.75-.49,1.55-.73,2.43-.73,1.47,0,2.56,.48,3.28,1.45s1.07,2.35,1.07,4.15v8.89h-2.98V11.95c0-1.22-.19-2.08-.57-2.61-.38-.52-.97-.78-1.77-.78-.48,0-.98,.15-1.5,.46-.52,.31-1.08,.79-1.68,1.44v10.02h-2.95V11.95c0-1.22-.19-2.08-.57-2.61-.38-.52-.98-.78-1.8-.78-.46,0-.96,.15-1.49,.46-.53,.31-1.09,.79-1.67,1.44v10.02h-2.95Z" />
  <path class="cls"
    d="M195.22,20.83c-1.28,0-2.45-.3-3.49-.89-1.04-.59-1.88-1.44-2.49-2.54-.62-1.1-.92-2.44-.92-4,0-1.15,.18-2.18,.54-3.1,.36-.92,.85-1.7,1.46-2.34,.62-.64,1.31-1.13,2.08-1.48,.77-.34,1.56-.51,2.36-.51,1.25,0,2.3,.28,3.16,.83,.86,.56,1.51,1.34,1.95,2.34,.45,1,.67,2.17,.67,3.51,0,.29-.01,.57-.04,.83-.03,.27-.06,.49-.12,.68h-9.17c.09,.89,.32,1.66,.71,2.3,.38,.64,.89,1.14,1.52,1.49,.62,.35,1.34,.53,2.15,.53,.63,0,1.22-.09,1.77-.28,.55-.19,1.08-.45,1.59-.77l1.03,1.88c-.65,.43-1.37,.79-2.17,1.08-.8,.29-1.66,.44-2.58,.44Zm-4.03-8.71h6.78c0-1.2-.27-2.13-.81-2.8-.54-.67-1.32-1-2.35-1-.58,0-1.13,.15-1.64,.44-.51,.29-.95,.72-1.3,1.28-.35,.56-.58,1.26-.68,2.08Z" />
</svg>