<svg width="248" height="20" viewBox="0 0 248 20" fill="none" xmlns="http://www.w3.org/2000/svg">
<path d="M242.406 15.699C241.809 15.6896 241.213 15.5759 240.616 15.3581C240.02 15.1403 239.475 14.7734 238.983 14.2573C238.49 13.7364 238.095 13.0333 237.797 12.1479C237.498 11.2578 237.349 10.1403 237.349 8.79563C237.349 7.50775 237.47 6.36666 237.711 5.37234C237.953 4.37328 238.303 3.53285 238.762 2.85103C239.222 2.16448 239.776 1.64364 240.424 1.28853C241.078 0.933416 241.814 0.755859 242.633 0.755859C243.448 0.755859 244.172 0.919212 244.807 1.24592C245.446 1.56789 245.967 2.0177 246.369 2.59535C246.771 3.173 247.032 3.83825 247.15 4.59109H245.417C245.256 3.93768 244.944 3.39554 244.48 2.96467C244.016 2.5338 243.4 2.31836 242.633 2.31836C241.506 2.31836 240.619 2.80842 239.97 3.78853C239.326 4.76864 239.002 6.14412 238.997 7.91495H239.11C239.376 7.51249 239.691 7.16921 240.055 6.88512C240.424 6.5963 240.832 6.37376 241.277 6.21751C241.722 6.06126 242.193 5.98313 242.69 5.98313C243.523 5.98313 244.286 6.19147 244.977 6.60813C245.668 7.02006 246.222 7.59061 246.639 8.31978C247.056 9.04421 247.264 9.87518 247.264 10.8127C247.264 11.7123 247.063 12.5362 246.66 13.2843C246.258 14.0276 245.692 14.6195 244.963 15.0598C244.238 15.4954 243.386 15.7085 242.406 15.699ZM242.406 14.1365C243.003 14.1365 243.538 13.9874 244.011 13.6891C244.489 13.3908 244.866 12.9907 245.14 12.4888C245.42 11.9869 245.559 11.4282 245.559 10.8127C245.559 10.2114 245.424 9.66448 245.155 9.17205C244.889 8.67489 244.522 8.27953 244.054 7.98597C243.59 7.69241 243.059 7.54563 242.463 7.54563C242.013 7.54563 241.594 7.6356 241.206 7.81552C240.817 7.99071 240.476 8.23219 240.183 8.53995C239.894 8.84772 239.667 9.20046 239.501 9.59819C239.335 9.99118 239.253 10.4055 239.253 10.8411C239.253 11.4187 239.387 11.9585 239.657 12.4604C239.932 12.9623 240.306 13.3671 240.78 13.6749C241.258 13.9827 241.8 14.1365 242.406 14.1365Z" fill="white"/>
<path d="M229.757 15.699C228.819 15.699 227.983 15.5381 227.25 15.2161C226.52 14.8941 225.94 14.4467 225.509 13.8738C225.083 13.2961 224.851 12.6261 224.813 11.8638H226.603C226.641 12.3326 226.802 12.7374 227.086 13.0783C227.37 13.4145 227.742 13.6749 228.201 13.8596C228.661 14.0442 229.17 14.1365 229.728 14.1365C230.353 14.1365 230.907 14.0276 231.39 13.8098C231.873 13.592 232.252 13.289 232.527 12.9007C232.801 12.5125 232.938 12.0627 232.938 11.5513C232.938 11.0163 232.806 10.5452 232.541 10.138C232.276 9.72603 231.887 9.40406 231.376 9.17205C230.865 8.94005 230.24 8.82404 229.501 8.82404H228.336V7.26154H229.501C230.079 7.26154 230.585 7.15737 231.021 6.94904C231.461 6.74071 231.804 6.44715 232.051 6.06836C232.302 5.68957 232.427 5.2445 232.427 4.73313C232.427 4.24071 232.318 3.8122 232.1 3.44762C231.883 3.08304 231.575 2.79895 231.177 2.59535C230.784 2.39175 230.32 2.28995 229.785 2.28995C229.283 2.28995 228.81 2.38228 228.365 2.56694C227.924 2.74686 227.564 3.00965 227.285 3.35529C227.006 3.6962 226.854 4.10813 226.831 4.59109H225.126C225.154 3.82878 225.384 3.16116 225.815 2.58825C226.246 2.01059 226.809 1.56078 227.505 1.23881C228.206 0.916844 228.975 0.755859 229.813 0.755859C230.713 0.755859 231.485 0.938151 232.129 1.30273C232.773 1.66258 233.268 2.13844 233.613 2.73029C233.959 3.32215 234.132 3.96135 234.132 4.64791C234.132 5.46703 233.916 6.16542 233.485 6.74308C233.059 7.32073 232.479 7.72082 231.745 7.94336V8.057C232.664 8.20851 233.381 8.59914 233.897 9.22887C234.413 9.85387 234.671 10.628 234.671 11.5513C234.671 12.342 234.456 13.0523 234.025 13.682C233.599 14.307 233.017 14.7994 232.278 15.1593C231.539 15.5191 230.699 15.699 229.757 15.699Z" fill="white"/>
<path d="M217.219 15.6989C216.386 15.6989 215.635 15.5332 214.968 15.2017C214.3 14.8703 213.765 14.4158 213.363 13.8381C212.96 13.2605 212.74 12.6023 212.702 11.8637H214.407C214.473 12.5218 214.771 13.0663 215.302 13.4972C215.837 13.9233 216.476 14.1364 217.219 14.1364C217.816 14.1364 218.346 13.9967 218.81 13.7174C219.279 13.438 219.646 13.0545 219.911 12.5668C220.181 12.0744 220.316 11.518 220.316 10.8978C220.316 10.2633 220.176 9.69749 219.897 9.20033C219.622 8.69844 219.243 8.30307 218.76 8.01425C218.277 7.72542 217.726 7.57864 217.106 7.57391C216.66 7.56917 216.204 7.63783 215.735 7.77987C215.266 7.91718 214.88 8.09474 214.577 8.31254L212.929 8.11368L213.81 0.95459H221.367V2.51709H215.287L214.776 6.80686H214.861C215.16 6.57012 215.534 6.37362 215.983 6.21737C216.433 6.06112 216.902 5.983 217.39 5.983C218.28 5.983 219.073 6.19607 219.769 6.6222C220.47 7.04361 221.019 7.62126 221.417 8.35516C221.819 9.08906 222.02 9.92713 222.02 10.8694C222.02 11.7974 221.812 12.626 221.395 13.3552C220.983 14.0796 220.415 14.6525 219.691 15.0739C218.966 15.4906 218.142 15.6989 217.219 15.6989Z" fill="white"/>
<path d="M205.051 15.6989C204.218 15.6989 203.467 15.5332 202.8 15.2017C202.132 14.8703 201.597 14.4158 201.195 13.8381C200.792 13.2605 200.572 12.6023 200.534 11.8637H202.239C202.305 12.5218 202.603 13.0663 203.134 13.4972C203.669 13.9233 204.308 14.1364 205.051 14.1364C205.648 14.1364 206.178 13.9967 206.642 13.7174C207.111 13.438 207.478 13.0545 207.743 12.5668C208.013 12.0744 208.148 11.518 208.148 10.8978C208.148 10.2633 208.008 9.69749 207.729 9.20033C207.454 8.69844 207.075 8.30307 206.592 8.01425C206.109 7.72542 205.558 7.57864 204.938 7.57391C204.493 7.56917 204.036 7.63783 203.567 7.77987C203.098 7.91718 202.712 8.09474 202.409 8.31254L200.761 8.11368L201.642 0.95459H209.199V2.51709H203.119L202.608 6.80686H202.693C202.992 6.57012 203.366 6.37362 203.815 6.21737C204.265 6.06112 204.734 5.983 205.222 5.983C206.112 5.983 206.905 6.19607 207.601 6.6222C208.302 7.04361 208.851 7.62126 209.249 8.35516C209.651 9.08906 209.852 9.92713 209.852 10.8694C209.852 11.7974 209.644 12.626 209.227 13.3552C208.815 14.0796 208.247 14.6525 207.523 15.0739C206.798 15.4906 205.975 15.6989 205.051 15.6989Z" fill="white"/>
<path d="M192.855 15.699C192.259 15.6896 191.662 15.5759 191.065 15.3581C190.469 15.1403 189.924 14.7734 189.432 14.2573C188.939 13.7364 188.544 13.0333 188.246 12.1479C187.947 11.2578 187.798 10.1403 187.798 8.79563C187.798 7.50775 187.919 6.36666 188.161 5.37234C188.402 4.37328 188.752 3.53285 189.212 2.85103C189.671 2.16448 190.225 1.64364 190.874 1.28853C191.527 0.933416 192.263 0.755859 193.082 0.755859C193.897 0.755859 194.621 0.919212 195.256 1.24592C195.895 1.56789 196.416 2.0177 196.818 2.59535C197.221 3.173 197.481 3.83825 197.599 4.59109H195.867C195.706 3.93768 195.393 3.39554 194.929 2.96467C194.465 2.5338 193.849 2.31836 193.082 2.31836C191.956 2.31836 191.068 2.80842 190.419 3.78853C189.775 4.76864 189.451 6.14412 189.446 7.91495H189.56C189.825 7.51249 190.14 7.16921 190.504 6.88512C190.874 6.5963 191.281 6.37376 191.726 6.21751C192.171 6.06126 192.642 5.98313 193.139 5.98313C193.973 5.98313 194.735 6.19147 195.426 6.60813C196.117 7.02006 196.671 7.59061 197.088 8.31978C197.505 9.04421 197.713 9.87518 197.713 10.8127C197.713 11.7123 197.512 12.5362 197.109 13.2843C196.707 14.0276 196.141 14.6195 195.412 15.0598C194.688 15.4954 193.835 15.7085 192.855 15.699ZM192.855 14.1365C193.452 14.1365 193.987 13.9874 194.46 13.6891C194.938 13.3908 195.315 12.9907 195.59 12.4888C195.869 11.9869 196.009 11.4282 196.009 10.8127C196.009 10.2114 195.874 9.66448 195.604 9.17205C195.339 8.67489 194.972 8.27953 194.503 7.98597C194.039 7.69241 193.509 7.54563 192.912 7.54563C192.462 7.54563 192.043 7.6356 191.655 7.81552C191.267 7.99071 190.926 8.23219 190.632 8.53995C190.343 8.84772 190.116 9.20046 189.95 9.59819C189.785 9.99118 189.702 10.4055 189.702 10.8411C189.702 11.4187 189.837 11.9585 190.107 12.4604C190.381 12.9623 190.755 13.3671 191.229 13.6749C191.707 13.9827 192.249 14.1365 192.855 14.1365Z" fill="white"/>
<path d="M183.308 11.0402V4.59131H184.984V15.5004H183.308V13.6538H183.194C182.938 14.2078 182.541 14.6789 182.001 15.0672C181.461 15.4507 180.779 15.6424 179.955 15.6424C179.274 15.6424 178.667 15.4933 178.137 15.195C177.607 14.892 177.19 14.4374 176.887 13.8314C176.584 13.2206 176.433 12.4512 176.433 11.5231V4.59131H178.109V11.4095C178.109 12.2049 178.331 12.8394 178.776 13.3129C179.226 13.7864 179.799 14.0231 180.495 14.0231C180.912 14.0231 181.336 13.9166 181.766 13.7035C182.202 13.4905 182.567 13.1638 182.86 12.7234C183.158 12.2831 183.308 11.722 183.308 11.0402Z" fill="white"/>
<path d="M168.991 15.5004V4.59135H170.611V6.23908H170.724C170.923 5.69931 171.283 5.26133 171.804 4.92516C172.325 4.58899 172.912 4.4209 173.565 4.4209C173.688 4.4209 173.842 4.42327 174.027 4.428C174.211 4.43274 174.351 4.43984 174.446 4.44931V6.15385C174.389 6.13965 174.259 6.11834 174.055 6.08993C173.856 6.05679 173.646 6.04022 173.423 6.04022C172.893 6.04022 172.419 6.15149 172.003 6.37402C171.591 6.59183 171.264 6.89486 171.022 7.28311C170.786 7.66664 170.667 8.10461 170.667 8.59704V15.5004H168.991Z" fill="white"/>
<path d="M161.49 15.7276C160.505 15.7276 159.641 15.4933 158.897 15.0245C158.159 14.5558 157.581 13.9 157.164 13.0572C156.752 12.2144 156.546 11.2295 156.546 10.1026C156.546 8.96626 156.752 7.97431 157.164 7.12677C157.581 6.27924 158.159 5.62109 158.897 5.15234C159.641 4.68359 160.505 4.44922 161.49 4.44922C162.474 4.44922 163.336 4.68359 164.075 5.15234C164.818 5.62109 165.396 6.27924 165.808 7.12677C166.224 7.97431 166.433 8.96626 166.433 10.1026C166.433 11.2295 166.224 12.2144 165.808 13.0572C165.396 13.9 164.818 14.5558 164.075 15.0245C163.336 15.4933 162.474 15.7276 161.49 15.7276ZM161.49 14.2219C162.238 14.2219 162.853 14.0302 163.336 13.6467C163.819 13.2631 164.177 12.7589 164.409 12.1339C164.641 11.5089 164.757 10.8318 164.757 10.1026C164.757 9.37346 164.641 8.69401 164.409 8.06427C164.177 7.43454 163.819 6.92554 163.336 6.53729C162.853 6.14903 162.238 5.9549 161.49 5.9549C160.741 5.9549 160.126 6.14903 159.643 6.53729C159.16 6.92554 158.803 7.43454 158.571 8.06427C158.339 8.69401 158.223 9.37346 158.223 10.1026C158.223 10.8318 158.339 11.5089 158.571 12.1339C158.803 12.7589 159.16 13.2631 159.643 13.6467C160.126 14.0302 160.741 14.2219 161.49 14.2219Z" fill="white"/>
<path d="M149.556 15.7276C148.571 15.7276 147.707 15.4933 146.964 15.0245C146.225 14.5558 145.647 13.9 145.231 13.0572C144.819 12.2144 144.613 11.2295 144.613 10.1026C144.613 8.96626 144.819 7.97431 145.231 7.12677C145.647 6.27924 146.225 5.62109 146.964 5.15234C147.707 4.68359 148.571 4.44922 149.556 4.44922C150.541 4.44922 151.403 4.68359 152.141 5.15234C152.885 5.62109 153.462 6.27924 153.874 7.12677C154.291 7.97431 154.499 8.96626 154.499 10.1026C154.499 11.2295 154.291 12.2144 153.874 13.0572C153.462 13.9 152.885 14.5558 152.141 15.0245C151.403 15.4933 150.541 15.7276 149.556 15.7276ZM149.556 14.2219C150.304 14.2219 150.92 14.0302 151.403 13.6467C151.886 13.2631 152.243 12.7589 152.475 12.1339C152.707 11.5089 152.823 10.8318 152.823 10.1026C152.823 9.37346 152.707 8.69401 152.475 8.06427C152.243 7.43454 151.886 6.92554 151.403 6.53729C150.92 6.14903 150.304 5.9549 149.556 5.9549C148.808 5.9549 148.192 6.14903 147.709 6.53729C147.226 6.92554 146.869 7.43454 146.637 8.06427C146.405 8.69401 146.289 9.37346 146.289 10.1026C146.289 10.8318 146.405 11.5089 146.637 12.1339C146.869 12.7589 147.226 13.2631 147.709 13.6467C148.192 14.0302 148.808 14.2219 149.556 14.2219Z" fill="white"/>
<path d="M142.72 4.59118V6.01163H137.066V4.59118H142.72ZM138.714 1.97754H140.39V12.3753C140.39 12.8488 140.459 13.2039 140.596 13.4406C140.738 13.6726 140.918 13.8289 141.136 13.9094C141.359 13.9851 141.593 14.023 141.839 14.023C142.024 14.023 142.175 14.0135 142.294 13.9946C142.412 13.9709 142.507 13.952 142.578 13.9378L142.919 15.4434C142.805 15.4861 142.646 15.5287 142.443 15.5713C142.239 15.6186 141.981 15.6423 141.669 15.6423C141.195 15.6423 140.731 15.5405 140.277 15.3369C139.827 15.1333 139.453 14.8232 139.154 14.4065C138.861 13.9899 138.714 13.4643 138.714 12.8298V1.97754Z" fill="white"/>
<path d="M129.916 15.756C129.225 15.756 128.598 15.6258 128.034 15.3654C127.471 15.1003 127.023 14.7191 126.692 14.2219C126.361 13.7201 126.195 13.114 126.195 12.4038C126.195 11.7788 126.318 11.2721 126.564 10.8839C126.81 10.4909 127.139 10.1831 127.551 9.96058C127.963 9.73804 128.418 9.57232 128.915 9.46342C129.417 9.34979 129.921 9.25982 130.428 9.19354C131.091 9.10831 131.628 9.04439 132.04 9.00177C132.457 8.95443 132.76 8.8763 132.949 8.7674C133.143 8.6585 133.24 8.4691 133.24 8.19922V8.1424C133.24 7.44164 133.049 6.89713 132.665 6.50888C132.286 6.12062 131.711 5.92649 130.939 5.92649C130.139 5.92649 129.512 6.10168 129.057 6.45206C128.602 6.80244 128.283 7.17649 128.098 7.57422L126.507 7.00604C126.791 6.34316 127.17 5.82706 127.644 5.45774C128.122 5.08369 128.643 4.82327 129.206 4.67649C129.774 4.52498 130.333 4.44922 130.882 4.44922C131.233 4.44922 131.635 4.49183 132.09 4.57706C132.549 4.65755 132.992 4.82564 133.418 5.08132C133.849 5.337 134.206 5.72289 134.49 6.23899C134.774 6.75509 134.916 7.44638 134.916 8.31285V15.5004H133.24V14.0231H133.155C133.041 14.2598 132.852 14.5131 132.587 14.783C132.322 15.0529 131.969 15.2826 131.529 15.4719C131.088 15.6613 130.551 15.756 129.916 15.756ZM130.172 14.2504C130.835 14.2504 131.394 14.1201 131.848 13.8597C132.308 13.5993 132.653 13.2631 132.885 12.8512C133.122 12.4393 133.24 12.006 133.24 11.5515V10.0174C133.169 10.1026 133.013 10.1808 132.772 10.2518C132.535 10.3181 132.26 10.3772 131.948 10.4293C131.64 10.4767 131.339 10.5193 131.046 10.5572C130.757 10.5903 130.522 10.6187 130.343 10.6424C129.907 10.6992 129.5 10.7915 129.121 10.9194C128.747 11.0425 128.444 11.2295 128.212 11.4805C127.985 11.7267 127.871 12.0629 127.871 12.489C127.871 13.0714 128.086 13.5117 128.517 13.81C128.953 14.1036 129.504 14.2504 130.172 14.2504Z" fill="white"/>
<path d="M122.134 4.59109C122.049 3.87139 121.703 3.31268 121.097 2.91495C120.491 2.51722 119.748 2.31836 118.867 2.31836C118.223 2.31836 117.66 2.42253 117.177 2.63086C116.699 2.83919 116.325 3.12565 116.055 3.49023C115.79 3.85482 115.657 4.26912 115.657 4.73313C115.657 5.12139 115.749 5.4552 115.934 5.73455C116.123 6.00917 116.365 6.23881 116.658 6.42347C116.952 6.6034 117.26 6.75255 117.582 6.87092C117.904 6.98455 118.2 7.07688 118.469 7.14791L119.947 7.54563C120.326 7.64506 120.747 7.78237 121.211 7.95756C121.68 8.13275 122.127 8.37186 122.553 8.67489C122.984 8.97319 123.339 9.35671 123.619 9.82546C123.898 10.2942 124.038 10.8695 124.038 11.5513C124.038 12.3373 123.832 13.0475 123.42 13.682C123.013 14.3165 122.416 14.8207 121.63 15.1948C120.849 15.5688 119.899 15.7559 118.782 15.7559C117.74 15.7559 116.838 15.5878 116.076 15.2516C115.318 14.9154 114.722 14.4467 114.286 13.8453C113.855 13.244 113.612 12.5456 113.555 11.7502H115.373C115.42 12.2994 115.605 12.754 115.927 13.1138C116.254 13.4689 116.665 13.7341 117.163 13.9093C117.665 14.0797 118.204 14.165 118.782 14.165C119.454 14.165 120.058 14.056 120.593 13.8382C121.128 13.6157 121.552 13.3079 121.864 12.915C122.177 12.5172 122.333 12.0532 122.333 11.5229C122.333 11.04 122.198 10.647 121.928 10.3439C121.658 10.0409 121.303 9.79469 120.863 9.60529C120.423 9.4159 119.947 9.25018 119.435 9.10813L117.646 8.59677C116.509 8.27006 115.61 7.80368 114.947 7.19762C114.284 6.59156 113.952 5.79847 113.952 4.81836C113.952 4.00397 114.173 3.29374 114.613 2.68768C115.058 2.07688 115.655 1.6034 116.403 1.26722C117.156 0.926314 117.996 0.755859 118.924 0.755859C119.862 0.755859 120.695 0.923947 121.424 1.26012C122.153 1.59156 122.731 2.04611 123.157 2.62376C123.588 3.20141 123.815 3.85719 123.839 4.59109H122.134Z" fill="white"/>
<path d="M111.965 0.272949L107.278 17.6877H105.744L110.431 0.272949H111.965Z" fill="white"/>
<path d="M89.4404 15.5004V4.59126H91.0598V6.29581H91.2018C91.4291 5.71342 91.796 5.26124 92.3027 4.93927C92.8093 4.61257 93.4177 4.44922 94.1279 4.44922C94.8476 4.44922 95.4466 4.61257 95.9248 4.93927C96.4078 5.26124 96.7842 5.71342 97.0541 6.29581H97.1677C97.4471 5.73236 97.8661 5.28492 98.4248 4.95348C98.9835 4.61731 99.6535 4.44922 100.435 4.44922C101.41 4.44922 102.208 4.75462 102.828 5.36541C103.448 5.97147 103.759 6.91607 103.759 8.19922V15.5004H102.082V8.19922C102.082 7.39429 101.862 6.81901 101.422 6.47337C100.982 6.12772 100.463 5.9549 99.8666 5.9549C99.0995 5.9549 98.5053 6.18691 98.0839 6.65092C97.6625 7.1102 97.4518 7.69259 97.4518 8.39808V15.5004H95.7473V8.02876C95.7473 7.4085 95.546 6.90897 95.1436 6.53018C94.7411 6.14666 94.2226 5.9549 93.5882 5.9549C93.1526 5.9549 92.7454 6.0709 92.3666 6.30291C91.9925 6.53492 91.6895 6.85689 91.4575 7.26882C91.2302 7.67602 91.1166 8.14713 91.1166 8.68217V15.5004H89.4404Z" fill="white"/>
<path d="M81.9388 15.7276C80.9539 15.7276 80.0898 15.4933 79.3465 15.0245C78.6078 14.5558 78.0302 13.9 77.6135 13.0572C77.2016 12.2144 76.9956 11.2295 76.9956 10.1026C76.9956 8.96626 77.2016 7.97431 77.6135 7.12677C78.0302 6.27924 78.6078 5.62109 79.3465 5.15234C80.0898 4.68359 80.9539 4.44922 81.9388 4.44922C82.9236 4.44922 83.7854 4.68359 84.524 5.15234C85.2674 5.62109 85.845 6.27924 86.257 7.12677C86.6736 7.97431 86.882 8.96626 86.882 10.1026C86.882 11.2295 86.6736 12.2144 86.257 13.0572C85.845 13.9 85.2674 14.5558 84.524 15.0245C83.7854 15.4933 82.9236 15.7276 81.9388 15.7276ZM81.9388 14.2219C82.6869 14.2219 83.3024 14.0302 83.7854 13.6467C84.2683 13.2631 84.6258 12.7589 84.8578 12.1339C85.0898 11.5089 85.2058 10.8318 85.2058 10.1026C85.2058 9.37346 85.0898 8.69401 84.8578 8.06427C84.6258 7.43454 84.2683 6.92554 83.7854 6.53729C83.3024 6.14903 82.6869 5.9549 81.9388 5.9549C81.1907 5.9549 80.5751 6.14903 80.0922 6.53729C79.6092 6.92554 79.2518 7.43454 79.0198 8.06427C78.7877 8.69401 78.6717 9.37346 78.6717 10.1026C78.6717 10.8318 78.7877 11.5089 79.0198 12.1339C79.2518 12.7589 79.6092 13.2631 80.0922 13.6467C80.5751 14.0302 81.1907 14.2219 81.9388 14.2219Z" fill="white"/>
<path d="M70.7669 15.7276C69.7442 15.7276 68.8635 15.4861 68.1249 15.0032C67.3862 14.5202 66.818 13.855 66.4203 13.0075C66.0226 12.1599 65.8237 11.1916 65.8237 10.1026C65.8237 8.99467 66.0273 8.01693 66.4345 7.16939C66.8465 6.31712 67.4194 5.65187 68.1533 5.17365C68.8919 4.6907 69.7537 4.44922 70.7385 4.44922C71.5055 4.44922 72.1968 4.59126 72.8124 4.87535C73.4279 5.15945 73.9322 5.55717 74.3251 6.06854C74.7181 6.5799 74.962 7.17649 75.0567 7.85831H73.3805C73.2527 7.36115 72.9686 6.92081 72.5283 6.53729C72.0927 6.14903 71.5056 5.9549 70.7669 5.9549C70.1135 5.9549 69.5406 6.12535 69.0482 6.46626C68.5605 6.80244 68.1793 7.27829 67.9047 7.89382C67.6348 8.50462 67.4999 9.22195 67.4999 10.0458C67.4999 10.8886 67.6324 11.6225 67.8976 12.2475C68.1675 12.8725 68.5463 13.3578 69.034 13.7035C69.5264 14.0491 70.104 14.2219 70.7669 14.2219C71.2025 14.2219 71.5979 14.1462 71.953 13.9947C72.3081 13.8432 72.6088 13.6254 72.855 13.3413C73.1012 13.0572 73.2764 12.7163 73.3805 12.3185H75.0567C74.962 12.9625 74.7276 13.5425 74.3536 14.0586C73.9842 14.57 73.4942 14.9772 72.8834 15.2802C72.2773 15.5785 71.5718 15.7276 70.7669 15.7276Z" fill="white"/>
<path d="M62.0489 15.6139C61.6985 15.6139 61.3979 15.4885 61.1469 15.2375C60.896 14.9866 60.7705 14.6859 60.7705 14.3355C60.7705 13.9852 60.896 13.6845 61.1469 13.4335C61.3979 13.1826 61.6985 13.0571 62.0489 13.0571C62.3993 13.0571 62.7 13.1826 62.9509 13.4335C63.2019 13.6845 63.3273 13.9852 63.3273 14.3355C63.3273 14.5675 63.2681 14.7806 63.1498 14.9747C63.0361 15.1689 62.8823 15.3251 62.6881 15.4435C62.4987 15.5571 62.2857 15.6139 62.0489 15.6139Z" fill="white"/>
<path d="M48.6328 15.5V0.95459H50.3089V6.32391H50.451C50.5741 6.13451 50.7446 5.89304 50.9624 5.59948C51.1849 5.30118 51.5021 5.03603 51.9141 4.80402C52.3307 4.56728 52.8942 4.44891 53.6044 4.44891C54.523 4.44891 55.3326 4.67855 56.0334 5.13783C56.7341 5.59711 57.281 6.24815 57.674 7.09095C58.067 7.93376 58.2635 8.92808 58.2635 10.0739C58.2635 11.2292 58.067 12.2306 57.674 13.0782C57.281 13.921 56.7365 14.5744 56.0405 15.0384C55.3445 15.4977 54.5419 15.7273 53.6328 15.7273C52.9321 15.7273 52.371 15.6113 51.9496 15.3793C51.5282 15.1426 51.2038 14.875 50.9766 14.5767C50.7493 14.2737 50.5741 14.0228 50.451 13.8239H50.2521V15.5H48.6328ZM50.2805 10.0455C50.2805 10.8694 50.4013 11.5962 50.6428 12.2259C50.8842 12.8509 51.237 13.341 51.701 13.6961C52.165 14.0464 52.7332 14.2216 53.4055 14.2216C54.1063 14.2216 54.6911 14.037 55.1598 13.6677C55.6333 13.2936 55.9884 12.7917 56.2251 12.162C56.4666 11.5275 56.5874 10.822 56.5874 10.0455C56.5874 9.27845 56.469 8.58717 56.2322 7.97164C56.0002 7.35137 55.6475 6.86131 55.174 6.50146C54.7053 6.13688 54.1158 5.95459 53.4055 5.95459C52.7237 5.95459 52.1508 6.12741 51.6868 6.47306C51.2228 6.81396 50.8724 7.29218 50.6357 7.90771C50.3989 8.51851 50.2805 9.2311 50.2805 10.0455Z" fill="white"/>
<path d="M43.6592 11.0402V4.59131H45.3353V15.5004H43.6592V13.6538H43.5455C43.2899 14.2078 42.8921 14.6789 42.3524 15.0672C41.8126 15.4507 41.1308 15.6424 40.3069 15.6424C39.6251 15.6424 39.019 15.4933 38.4887 15.195C37.9584 14.892 37.5418 14.4374 37.2387 13.8314C36.9357 13.2206 36.7842 12.4512 36.7842 11.5231V4.59131H38.4603V11.4095C38.4603 12.2049 38.6829 12.8394 39.1279 13.3129C39.5777 13.7864 40.1507 14.0231 40.8467 14.0231C41.2633 14.0231 41.6871 13.9166 42.118 13.7035C42.5536 13.4905 42.9182 13.1638 43.2117 12.7234C43.51 12.2831 43.6592 11.722 43.6592 11.0402Z" fill="white"/>
<path d="M26.6439 8.93754V15.5H24.9678V0.95459H26.6439V6.2955H26.786C27.0416 5.73205 27.4252 5.28461 27.9365 4.95317C28.4526 4.617 29.1392 4.44891 29.9962 4.44891C30.7396 4.44891 31.3906 4.59806 31.9493 4.89635C32.508 5.18991 32.9413 5.64209 33.249 6.25289C33.5615 6.85895 33.7178 7.63073 33.7178 8.56823V15.5H32.0416V8.68186C32.0416 7.81539 31.8167 7.1454 31.3669 6.67192C30.9218 6.1937 30.3039 5.95459 29.5132 5.95459C28.964 5.95459 28.4716 6.07059 28.036 6.3026C27.6051 6.53461 27.2642 6.87315 27.0132 7.31823C26.767 7.7633 26.6439 8.30307 26.6439 8.93754Z" fill="white"/>
<path d="M22.212 4.59118V6.01163H16.5586V4.59118H22.212ZM18.2063 1.97754H19.8825V12.3753C19.8825 12.8488 19.9511 13.2039 20.0884 13.4406C20.2305 13.6726 20.4104 13.8289 20.6282 13.9094C20.8507 13.9851 21.0851 14.023 21.3313 14.023C21.516 14.023 21.6675 14.0135 21.7859 13.9946C21.9042 13.9709 21.9989 13.952 22.07 13.9378L22.4109 15.4434C22.2972 15.4861 22.1386 15.5287 21.935 15.5713C21.7314 15.6186 21.4734 15.6423 21.1609 15.6423C20.6874 15.6423 20.2234 15.5405 19.7688 15.3369C19.319 15.1333 18.945 14.8232 18.6467 14.4065C18.3531 13.9899 18.2063 13.4643 18.2063 12.8298V1.97754Z" fill="white"/>
<path d="M12.7218 15.5V4.59091H14.3979V15.5H12.7218ZM13.574 2.77273C13.2473 2.77273 12.9656 2.66146 12.7289 2.43892C12.4969 2.21638 12.3809 1.94886 12.3809 1.63636C12.3809 1.32386 12.4969 1.05634 12.7289 0.833806C12.9656 0.611269 13.2473 0.5 13.574 0.5C13.9007 0.5 14.1801 0.611269 14.4121 0.833806C14.6489 1.05634 14.7672 1.32386 14.7672 1.63636C14.7672 1.94886 14.6489 2.21638 14.4121 2.43892C14.1801 2.66146 13.9007 2.77273 13.574 2.77273Z" fill="white"/>
<path d="M4.93772 19.8185C4.12806 19.8185 3.43204 19.7144 2.84965 19.506C2.26727 19.3024 1.78195 19.0326 1.39369 18.6964C1.01017 18.3649 0.704767 18.0098 0.477495 17.631L1.81272 16.6935C1.96424 16.8924 2.156 17.1197 2.38801 17.3754C2.62001 17.6358 2.93725 17.8607 3.33971 18.0501C3.74691 18.2442 4.27958 18.3413 4.93772 18.3413C5.8184 18.3413 6.5452 18.1282 7.11812 17.7021C7.69104 17.2759 7.97749 16.6083 7.97749 15.6992V13.4833H7.83545C7.71234 13.6822 7.53715 13.9284 7.30988 14.2219C7.08734 14.5108 6.76537 14.7688 6.34397 14.9961C5.92731 15.2186 5.36386 15.3299 4.65363 15.3299C3.77295 15.3299 2.98223 15.1216 2.28147 14.7049C1.58545 14.2882 1.03384 13.6822 0.626642 12.8867C0.22418 12.0913 0.0229492 11.1254 0.0229492 9.98899C0.0229492 8.87157 0.219445 7.89856 0.612438 7.06996C1.00543 6.23662 1.55231 5.59268 2.25306 5.13814C2.95382 4.67886 3.76348 4.44922 4.68204 4.44922C5.39227 4.44922 5.95571 4.56759 6.37238 4.80433C6.79378 5.03634 7.11575 5.30149 7.33829 5.59979C7.56556 5.89335 7.74075 6.13482 7.86386 6.32422H8.03431V4.59126H9.65363V15.8129C9.65363 16.7504 9.44056 17.5127 9.01443 18.0998C8.59303 18.6916 8.02484 19.1249 7.30988 19.3995C6.59965 19.6789 5.80893 19.8185 4.93772 19.8185ZM4.8809 13.8242C5.55325 13.8242 6.12143 13.6703 6.58545 13.3626C7.04946 13.0548 7.40221 12.6121 7.64369 12.0344C7.88516 11.4568 8.0059 10.7655 8.0059 9.96058C8.0059 9.1746 7.88753 8.48094 7.65079 7.87962C7.41405 7.27829 7.06367 6.80717 6.59965 6.46626C6.13564 6.12535 5.56272 5.9549 4.8809 5.9549C4.17068 5.9549 3.57882 6.13482 3.10534 6.49467C2.63659 6.85452 2.28384 7.33748 2.0471 7.94354C1.81509 8.5496 1.69909 9.22195 1.69909 9.96058C1.69909 10.7182 1.81746 11.3881 2.0542 11.9705C2.29568 12.5482 2.65079 13.0027 3.11954 13.3342C3.59302 13.6609 4.18015 13.8242 4.8809 13.8242Z" fill="white"/>
</svg>
