<?xml version="1.0" encoding="UTF-8"?>
<svg xmlns="http://www.w3.org/2000/svg" viewBox="0 0 140 20">
  <defs>
    <style>
      .cls {
      fill: #FFFFFF;
      }
    </style>
  </defs>
  <path class="cls"
    d="M5.32,18.42c-.96,0-1.91-.19-2.86-.57-.95-.38-1.77-.85-2.45-1.41l1.41-1.93c.62,.5,1.25,.9,1.89,1.19,.64,.3,1.34,.45,2.09,.45,.84,0,1.46-.18,1.86-.55,.4-.37,.6-.82,.6-1.35,0-.43-.15-.79-.45-1.08-.3-.29-.69-.54-1.17-.76-.48-.21-.98-.42-1.49-.6-.63-.24-1.25-.53-1.86-.86-.61-.33-1.11-.76-1.5-1.28-.39-.52-.59-1.18-.59-1.97s.2-1.52,.6-2.13,.98-1.1,1.73-1.46c.75-.36,1.65-.54,2.7-.54,.94,0,1.8,.16,2.58,.49,.78,.33,1.44,.72,1.99,1.18l-1.36,1.82c-.5-.36-1-.65-1.52-.89-.51-.23-1.05-.35-1.62-.35-.79,0-1.37,.17-1.75,.5-.38,.33-.56,.75-.56,1.25,0,.39,.14,.72,.41,.98s.64,.48,1.09,.67c.45,.19,.94,.39,1.45,.59,.5,.17,.99,.37,1.48,.6,.49,.23,.93,.51,1.32,.82,.39,.32,.71,.7,.96,1.16,.25,.45,.37,1.01,.37,1.68,0,.79-.21,1.52-.62,2.18s-1.01,1.19-1.8,1.58-1.77,.58-2.95,.58Z" />
  <path class="cls"
    d="M17.16,18.42c-.81,0-1.52-.17-2.15-.51-.63-.34-1.12-.82-1.48-1.44-.36-.62-.54-1.34-.54-2.16,0-1.52,.67-2.7,2.02-3.53,1.34-.83,3.49-1.41,6.44-1.73-.02-.55-.1-1.05-.26-1.52-.15-.46-.42-.83-.81-1.12s-.93-.42-1.63-.42-1.45,.15-2.13,.44c-.69,.29-1.34,.63-1.95,1l-1.1-2c.5-.31,1.04-.6,1.64-.89s1.24-.51,1.93-.69c.68-.18,1.4-.27,2.13-.27,1.18,0,2.15,.24,2.9,.71,.75,.47,1.31,1.15,1.68,2.04,.37,.89,.55,1.97,.55,3.24v8.5h-2.42l-.23-1.62h-.1c-.63,.55-1.33,1.02-2.08,1.4-.75,.39-1.56,.58-2.42,.58Zm.9-2.36c.62,0,1.19-.14,1.72-.42,.53-.28,1.09-.7,1.67-1.25v-3.44c-1.39,.15-2.49,.38-3.31,.68-.82,.3-1.41,.65-1.76,1.05-.35,.4-.53,.87-.53,1.4,0,.7,.21,1.21,.64,1.52s.95,.46,1.57,.46Z" />
  <path class="cls"
    d="M33.35,18.42c-1.06,0-1.91-.21-2.53-.63-.62-.42-1.07-1-1.35-1.75s-.41-1.61-.41-2.61V6.29h-2.06v-2.21l2.21-.18,.33-3.9h2.47V3.9h3.67v2.39h-3.67v7.17c0,.84,.16,1.48,.49,1.91,.33,.44,.86,.66,1.59,.66,.24,0,.5-.03,.77-.1,.27-.07,.51-.15,.72-.23l.54,2.18c-.38,.12-.8,.24-1.27,.36-.47,.12-.97,.18-1.5,.18Z" />
  <path class="cls"
    d="M44.44,18.42c-1.17,0-2.26-.3-3.28-.89-1.02-.59-1.84-1.44-2.47-2.54-.63-1.1-.94-2.44-.94-4s.31-2.92,.94-4.02c.62-1.1,1.45-1.95,2.47-2.53,1.02-.58,2.11-.87,3.28-.87,.86,0,1.69,.17,2.49,.5s1.52,.82,2.13,1.45c.62,.63,1.1,1.41,1.46,2.32,.36,.92,.54,1.97,.54,3.15,0,1.56-.31,2.89-.94,4-.63,1.1-1.44,1.95-2.44,2.54-1,.59-2.09,.89-3.25,.89Zm0-2.47c.74,0,1.37-.21,1.91-.62s.95-.99,1.25-1.73c.29-.75,.44-1.61,.44-2.61s-.15-1.86-.44-2.61-.71-1.33-1.25-1.75c-.54-.42-1.18-.63-1.91-.63s-1.4,.21-1.94,.63c-.54,.42-.96,1-1.25,1.75-.29,.75-.44,1.61-.44,2.61s.15,1.86,.44,2.61c.29,.74,.71,1.32,1.25,1.73s1.19,.62,1.94,.62Z" />
  <path class="cls"
    d="M60.24,18.42c-1.17,0-2.26-.3-3.28-.89-1.02-.59-1.84-1.44-2.47-2.54-.63-1.1-.94-2.44-.94-4s.31-2.92,.94-4.02c.62-1.1,1.45-1.95,2.47-2.53,1.02-.58,2.11-.87,3.28-.87,.86,0,1.69,.17,2.49,.5s1.52,.82,2.13,1.45c.62,.63,1.1,1.41,1.46,2.32,.36,.92,.54,1.97,.54,3.15,0,1.56-.31,2.89-.94,4-.63,1.1-1.44,1.95-2.44,2.54-1,.59-2.09,.89-3.25,.89Zm0-2.47c.74,0,1.37-.21,1.91-.62s.95-.99,1.25-1.73c.29-.75,.44-1.61,.44-2.61s-.15-1.86-.44-2.61-.71-1.33-1.25-1.75c-.54-.42-1.18-.63-1.91-.63s-1.4,.21-1.94,.63c-.54,.42-.96,1-1.25,1.75-.29,.75-.44,1.61-.44,2.61s.15,1.86,.44,2.61c.29,.74,.71,1.32,1.25,1.73s1.19,.62,1.94,.62Z" />
  <path class="cls"
    d="M70.36,18.06V3.9h2.42l.26,2.54h.05c.51-.91,1.12-1.61,1.82-2.12,.7-.5,1.44-.76,2.21-.76,.34,0,.63,.03,.87,.08,.24,.05,.47,.12,.69,.21l-.51,2.59c-.26-.09-.49-.15-.69-.18-.21-.03-.45-.05-.74-.05-.57,0-1.17,.23-1.8,.68-.63,.45-1.17,1.25-1.62,2.38v8.79h-2.95Z" />
  <path class="cls"
    d="M85.03,18.42c-1.51,0-2.61-.49-3.31-1.46-.7-.98-1.05-2.35-1.05-4.14V3.9h2.98V12.46c0,1.2,.19,2.06,.56,2.59,.38,.53,.98,.8,1.8,.8,.65,0,1.23-.17,1.75-.5s1.06-.87,1.64-1.61V3.9h2.98v14.16h-2.44l-.23-2.13h-.08c-.65,.74-1.34,1.34-2.06,1.8-.72,.46-1.57,.69-2.54,.69Z" />
  <path class="cls"
    d="M98.39,18.42c-.55,0-1.01-.2-1.4-.6s-.58-.9-.58-1.5,.19-1.12,.58-1.5c.39-.39,.85-.58,1.4-.58s1.04,.19,1.43,.58,.58,.89,.58,1.5-.19,1.1-.58,1.5c-.39,.4-.86,.6-1.43,.6Z" />
  <path class="cls"
    d="M104.46,18.06V3.9h2.42l.26,2h.05c.62-.65,1.28-1.2,1.99-1.66,.71-.45,1.51-.68,2.4-.68,1.04,0,1.88,.23,2.49,.68,.62,.45,1.08,1.09,1.39,1.91,.7-.75,1.43-1.37,2.17-1.86,.75-.49,1.55-.73,2.43-.73,1.47,0,2.56,.48,3.28,1.45s1.07,2.35,1.07,4.15v8.89h-2.98V9.53c0-1.22-.19-2.08-.57-2.61-.38-.52-.97-.78-1.77-.78-.48,0-.98,.15-1.5,.46-.52,.31-1.08,.79-1.68,1.44v10.02h-2.95V9.53c0-1.22-.19-2.08-.57-2.61-.38-.52-.98-.78-1.8-.78-.46,0-.96,.15-1.49,.46-.53,.31-1.09,.79-1.67,1.44v10.02h-2.95Z" />
  <path class="cls"
    d="M134.59,18.42c-1.28,0-2.45-.3-3.49-.89-1.04-.59-1.88-1.44-2.49-2.54-.62-1.1-.92-2.44-.92-4,0-1.15,.18-2.18,.54-3.1,.36-.92,.85-1.7,1.46-2.34,.62-.64,1.31-1.13,2.08-1.48,.77-.34,1.56-.51,2.36-.51,1.25,0,2.3,.28,3.16,.83,.86,.56,1.51,1.34,1.95,2.34,.45,1,.67,2.17,.67,3.51,0,.29-.01,.57-.04,.83-.03,.27-.06,.49-.12,.68h-9.17c.09,.89,.32,1.66,.71,2.3,.38,.64,.89,1.14,1.52,1.49,.62,.35,1.34,.53,2.15,.53,.63,0,1.22-.09,1.77-.28,.55-.19,1.08-.45,1.59-.77l1.03,1.88c-.65,.43-1.37,.79-2.17,1.08-.8,.29-1.66,.44-2.58,.44Zm-4.03-8.71h6.78c0-1.2-.27-2.13-.81-2.8-.54-.67-1.32-1-2.35-1-.58,0-1.13,.15-1.64,.44-.51,.29-.95,.72-1.3,1.28-.35,.56-.58,1.26-.68,2.08Z" />
</svg>