<svg width="245" height="22" viewBox="0 0 245 22" fill="none" xmlns="http://www.w3.org/2000/svg">
<path d="M2.64853 6.13907L5.78489 11.4913L8.92125 6.13907H11.2394L7.01216 12.6845L11.2394 19.23H8.92125L5.78489 14.1504L2.64853 19.23H0.330344L4.48944 12.6845L0.330344 6.13907H2.64853ZM15.5754 19.3663C15.1549 19.3663 14.7941 19.2158 14.493 18.9146C14.1919 18.6135 14.0413 18.2527 14.0413 17.8323C14.0413 17.4118 14.1919 17.051 14.493 16.7499C14.7941 16.4487 15.1549 16.2982 15.5754 16.2982C15.9958 16.2982 16.3566 16.4487 16.6578 16.7499C16.9589 17.051 17.1095 17.4118 17.1095 17.8323C17.1095 18.1107 17.0384 18.3663 16.8964 18.5993C16.76 18.8323 16.5754 19.0198 16.3424 19.1618C16.1151 19.2982 15.8595 19.3663 15.5754 19.3663ZM26.037 19.5027C24.8097 19.5027 23.7529 19.2129 22.8666 18.6334C21.9802 18.0538 21.2984 17.2555 20.8211 16.2385C20.3438 15.2215 20.1052 14.0595 20.1052 12.7527C20.1052 11.4232 20.3495 10.2499 20.8382 9.23282C21.3325 8.21009 22.02 7.4118 22.9007 6.83793C23.787 6.25839 24.8211 5.96862 26.0029 5.96862C26.9234 5.96862 27.7529 6.13907 28.4916 6.47998C29.2302 6.82089 29.8353 7.29816 30.3069 7.9118C30.7785 8.52543 31.0711 9.24134 31.1847 10.0595H29.1734C29.02 9.46293 28.6791 8.93453 28.1507 8.4743C27.6279 8.00839 26.9234 7.77543 26.037 7.77543C25.2529 7.77543 24.5654 7.97998 23.9745 8.38907C23.3893 8.79248 22.9319 9.3635 22.6024 10.1021C22.2785 10.8351 22.1166 11.6959 22.1166 12.6845C22.1166 13.6959 22.2757 14.5766 22.5938 15.3266C22.9177 16.0766 23.3722 16.659 23.9575 17.0737C24.5484 17.4885 25.2416 17.6959 26.037 17.6959C26.5597 17.6959 27.0342 17.605 27.4603 17.4232C27.8865 17.2413 28.2472 16.98 28.5427 16.6391C28.8382 16.2982 29.0484 15.8891 29.1734 15.4118H31.1847C31.0711 16.1845 30.7899 16.8805 30.341 17.4999C29.8978 18.1135 29.3097 18.6021 28.5768 18.9658C27.8495 19.3237 27.0029 19.5027 26.037 19.5027ZM39.4433 19.5027C38.2615 19.5027 37.2245 19.2215 36.3325 18.659C35.4461 18.0965 34.7529 17.3095 34.2529 16.2982C33.7586 15.2868 33.5115 14.105 33.5115 12.7527C33.5115 11.3891 33.7586 10.1987 34.2529 9.18168C34.7529 8.16464 35.4461 7.37487 36.3325 6.81237C37.2245 6.24987 38.2615 5.96862 39.4433 5.96862C40.6251 5.96862 41.6592 6.24987 42.5455 6.81237C43.4376 7.37487 44.1308 8.16464 44.6251 9.18168C45.1251 10.1987 45.3751 11.3891 45.3751 12.7527C45.3751 14.105 45.1251 15.2868 44.6251 16.2982C44.1308 17.3095 43.4376 18.0965 42.5455 18.659C41.6592 19.2215 40.6251 19.5027 39.4433 19.5027ZM39.4433 17.6959C40.341 17.6959 41.0796 17.4658 41.6592 17.0055C42.2387 16.5453 42.6677 15.9402 42.9461 15.1902C43.2245 14.4402 43.3637 13.6277 43.3637 12.7527C43.3637 11.8777 43.2245 11.0624 42.9461 10.3067C42.6677 9.551 42.2387 8.94021 41.6592 8.4743C41.0796 8.00839 40.341 7.77543 39.4433 7.77543C38.5455 7.77543 37.8069 8.00839 37.2274 8.4743C36.6478 8.94021 36.2188 9.551 35.9404 10.3067C35.662 11.0624 35.5228 11.8777 35.5228 12.7527C35.5228 13.6277 35.662 14.4402 35.9404 15.1902C36.2188 15.9402 36.6478 16.5453 37.2274 17.0055C37.8069 17.4658 38.5455 17.6959 39.4433 17.6959ZM48.4454 19.23V6.13907H50.3886V8.18453H50.559C50.8318 7.48566 51.2721 6.94305 51.8801 6.55668C52.488 6.16464 53.2181 5.96862 54.0704 5.96862C54.934 5.96862 55.6528 6.16464 56.2267 6.55668C56.8062 6.94305 57.2579 7.48566 57.5818 8.18453H57.7181C58.0534 7.50839 58.5562 6.97146 59.2267 6.57373C59.8971 6.17032 60.7011 5.96862 61.6386 5.96862C62.809 5.96862 63.7664 6.33509 64.5107 7.06805C65.2551 7.79532 65.6272 8.92884 65.6272 10.4686V19.23H63.6159V10.4686C63.6159 9.50271 63.3517 8.81237 62.8232 8.39759C62.2948 7.98282 61.6727 7.77543 60.9568 7.77543C60.0363 7.77543 59.3232 8.05384 58.8176 8.61066C58.3119 9.1618 58.059 9.86066 58.059 10.7073V19.23H56.0136V10.2641C56.0136 9.51975 55.7721 8.92032 55.2892 8.46578C54.8062 8.00555 54.184 7.77543 53.4227 7.77543C52.8999 7.77543 52.4113 7.91464 51.9568 8.19305C51.5079 8.47146 51.1443 8.85782 50.8659 9.35214C50.5931 9.84078 50.4568 10.4061 50.4568 11.0482V19.23H48.4454ZM75.4752 0.957252L69.8502 21.855H68.0093L73.6343 0.957252H75.4752ZM87.6776 6.13907C87.5754 5.27543 87.1606 4.60498 86.4333 4.12771C85.7061 3.65043 84.814 3.4118 83.7572 3.4118C82.9845 3.4118 82.3083 3.5368 81.7288 3.7868C81.1549 4.0368 80.7061 4.38055 80.3822 4.81805C80.064 5.25555 79.9049 5.75271 79.9049 6.30953C79.9049 6.77543 80.0157 7.176 80.2373 7.51123C80.4646 7.84078 80.7544 8.11634 81.1066 8.33793C81.4589 8.55384 81.8282 8.73282 82.2146 8.87487C82.6009 9.01123 82.9561 9.12203 83.2799 9.20725L85.0526 9.68453C85.5072 9.80384 86.0129 9.96862 86.5697 10.1788C87.1322 10.3891 87.6691 10.676 88.1805 11.0396C88.6975 11.3976 89.1237 11.8578 89.4589 12.4203C89.7941 12.9828 89.9617 13.6732 89.9617 14.4913C89.9617 15.4345 89.7146 16.2868 89.2203 17.0482C88.7316 17.8095 88.0157 18.4146 87.0725 18.8635C86.135 19.3124 84.9958 19.5368 83.6549 19.5368C82.4049 19.5368 81.3225 19.3351 80.4078 18.9317C79.4987 18.5283 78.7828 17.9658 78.26 17.2442C77.743 16.5226 77.4504 15.6845 77.3822 14.73H79.564C79.6208 15.3891 79.8424 15.9345 80.2288 16.3663C80.6208 16.7925 81.1151 17.1107 81.7117 17.3209C82.314 17.5254 82.9617 17.6277 83.6549 17.6277C84.4617 17.6277 85.1862 17.497 85.8282 17.2357C86.4703 16.9686 86.9788 16.5993 87.3538 16.1277C87.7288 15.6504 87.9163 15.0936 87.9163 14.4573C87.9163 13.8777 87.7544 13.4061 87.4305 13.0425C87.1066 12.6788 86.6805 12.3834 86.1521 12.1561C85.6237 11.9288 85.0526 11.73 84.439 11.5595L82.2913 10.9459C80.9276 10.5538 79.8481 9.99418 79.0526 9.26691C78.2572 8.53964 77.8595 7.58793 77.8595 6.4118C77.8595 5.43453 78.1237 4.58225 78.6521 3.85498C79.1862 3.12203 79.9021 2.55384 80.7998 2.15043C81.7032 1.74134 82.7117 1.5368 83.8254 1.5368C84.9504 1.5368 85.9504 1.7385 86.8254 2.14191C87.7004 2.53964 88.3936 3.08509 88.9049 3.77828C89.422 4.47146 89.6947 5.25839 89.7231 6.13907H87.6776ZM97.0164 19.5368C96.1869 19.5368 95.434 19.3805 94.7579 19.068C94.0818 18.7499 93.5448 18.2925 93.1471 17.6959C92.7494 17.0936 92.5505 16.3663 92.5505 15.5141C92.5505 14.7641 92.6982 14.1561 92.9937 13.6902C93.2892 13.2186 93.684 12.8493 94.1784 12.5823C94.6727 12.3152 95.2181 12.1163 95.8147 11.9857C96.417 11.8493 97.0221 11.7413 97.6301 11.6618C98.4255 11.5595 99.0704 11.4828 99.5647 11.4317C100.065 11.3749 100.428 11.2811 100.656 11.1504C100.889 11.0198 101.005 10.7925 101.005 10.4686V10.4004C101.005 9.55953 100.775 8.90612 100.315 8.44021C99.8602 7.9743 99.1698 7.74134 98.2437 7.74134C97.2835 7.74134 96.5306 7.95157 95.9852 8.37203C95.4397 8.79248 95.0562 9.24134 94.8346 9.71862L92.9255 9.0368C93.2664 8.24134 93.721 7.62203 94.2892 7.17884C94.863 6.72998 95.488 6.41748 96.1642 6.24134C96.846 6.05953 97.5164 5.96862 98.1755 5.96862C98.596 5.96862 99.0789 6.01975 99.6244 6.12203C100.176 6.21862 100.707 6.42032 101.218 6.72714C101.735 7.03396 102.164 7.49703 102.505 8.11634C102.846 8.73566 103.016 9.56521 103.016 10.605V19.23H101.005V17.4573H100.903C100.766 17.7413 100.539 18.0453 100.221 18.3692C99.9028 18.693 99.4795 18.9686 98.9511 19.1959C98.4227 19.4232 97.7778 19.5368 97.0164 19.5368ZM97.3232 17.73C98.1187 17.73 98.7892 17.5737 99.3346 17.2612C99.8857 16.9487 100.301 16.5453 100.579 16.051C100.863 15.5567 101.005 15.0368 101.005 14.4913V12.6504C100.92 12.7527 100.732 12.8465 100.443 12.9317C100.158 13.0112 99.8289 13.0823 99.4539 13.1448C99.0846 13.2016 98.7238 13.2527 98.3715 13.2982C98.0249 13.3379 97.7437 13.372 97.5278 13.4004C97.0051 13.4686 96.5164 13.5794 96.0619 13.7328C95.613 13.8805 95.2494 14.105 94.971 14.4061C94.6982 14.7016 94.5619 15.105 94.5619 15.6163C94.5619 16.3152 94.8204 16.8436 95.3374 17.2016C95.8602 17.5538 96.5221 17.73 97.3232 17.73ZM112.381 6.13907V7.84362H105.597V6.13907H112.381ZM107.574 3.00271H109.585V15.48C109.585 16.0482 109.668 16.4743 109.832 16.7584C110.003 17.0368 110.219 17.2243 110.48 17.3209C110.747 17.4118 111.028 17.4573 111.324 17.4573C111.546 17.4573 111.727 17.4459 111.869 17.4232C112.011 17.3948 112.125 17.372 112.21 17.355L112.619 19.1618C112.483 19.2129 112.293 19.2641 112.048 19.3152C111.804 19.372 111.494 19.4004 111.119 19.4004C110.551 19.4004 109.994 19.2783 109.449 19.034C108.909 18.7896 108.46 18.4175 108.102 17.9175C107.75 17.4175 107.574 16.7868 107.574 16.0254V3.00271ZM120.584 19.5027C119.402 19.5027 118.365 19.2215 117.473 18.659C116.587 18.0965 115.894 17.3095 115.394 16.2982C114.899 15.2868 114.652 14.105 114.652 12.7527C114.652 11.3891 114.899 10.1987 115.394 9.18168C115.894 8.16464 116.587 7.37487 117.473 6.81237C118.365 6.24987 119.402 5.96862 120.584 5.96862C121.766 5.96862 122.8 6.24987 123.686 6.81237C124.578 7.37487 125.271 8.16464 125.766 9.18168C126.266 10.1987 126.516 11.3891 126.516 12.7527C126.516 14.105 126.266 15.2868 125.766 16.2982C125.271 17.3095 124.578 18.0965 123.686 18.659C122.8 19.2215 121.766 19.5027 120.584 19.5027ZM120.584 17.6959C121.482 17.6959 122.22 17.4658 122.8 17.0055C123.379 16.5453 123.808 15.9402 124.087 15.1902C124.365 14.4402 124.504 13.6277 124.504 12.7527C124.504 11.8777 124.365 11.0624 124.087 10.3067C123.808 9.551 123.379 8.94021 122.8 8.4743C122.22 8.00839 121.482 7.77543 120.584 7.77543C119.686 7.77543 118.948 8.00839 118.368 8.4743C117.788 8.94021 117.359 9.551 117.081 10.3067C116.803 11.0624 116.663 11.8777 116.663 12.7527C116.663 13.6277 116.803 14.4402 117.081 15.1902C117.359 15.9402 117.788 16.5453 118.368 17.0055C118.948 17.4658 119.686 17.6959 120.584 17.6959ZM134.904 19.5027C133.722 19.5027 132.685 19.2215 131.793 18.659C130.907 18.0965 130.214 17.3095 129.714 16.2982C129.22 15.2868 128.972 14.105 128.972 12.7527C128.972 11.3891 129.22 10.1987 129.714 9.18168C130.214 8.16464 130.907 7.37487 131.793 6.81237C132.685 6.24987 133.722 5.96862 134.904 5.96862C136.086 5.96862 137.12 6.24987 138.006 6.81237C138.899 7.37487 139.592 8.16464 140.086 9.18168C140.586 10.1987 140.836 11.3891 140.836 12.7527C140.836 14.105 140.586 15.2868 140.086 16.2982C139.592 17.3095 138.899 18.0965 138.006 18.659C137.12 19.2215 136.086 19.5027 134.904 19.5027ZM134.904 17.6959C135.802 17.6959 136.541 17.4658 137.12 17.0055C137.7 16.5453 138.129 15.9402 138.407 15.1902C138.685 14.4402 138.825 13.6277 138.825 12.7527C138.825 11.8777 138.685 11.0624 138.407 10.3067C138.129 9.551 137.7 8.94021 137.12 8.4743C136.541 8.00839 135.802 7.77543 134.904 7.77543C134.006 7.77543 133.268 8.00839 132.688 8.4743C132.109 8.94021 131.68 9.551 131.401 10.3067C131.123 11.0624 130.984 11.8777 130.984 12.7527C130.984 13.6277 131.123 14.4402 131.401 15.1902C131.68 15.9402 132.109 16.5453 132.688 17.0055C133.268 17.4658 134.006 17.6959 134.904 17.6959ZM144.179 19.23V1.77543H150.077C151.44 1.77543 152.56 2.00839 153.435 2.4743C154.31 2.93453 154.957 3.56805 155.378 4.37487C155.798 5.18168 156.009 6.0993 156.009 7.12771C156.009 8.15612 155.798 9.06805 155.378 9.8635C154.957 10.659 154.313 11.284 153.443 11.7385C152.574 12.1874 151.463 12.4118 150.111 12.4118H145.338V10.5027H150.043C150.975 10.5027 151.725 10.3663 152.293 10.0936C152.867 9.82089 153.281 9.43453 153.537 8.93453C153.798 8.42884 153.929 7.82657 153.929 7.12771C153.929 6.42884 153.798 5.81805 153.537 5.29532C153.276 4.77259 152.858 4.36918 152.284 4.08509C151.71 3.79532 150.952 3.65043 150.009 3.65043H146.293V19.23H144.179ZM152.395 11.3891L156.69 19.23H154.236L150.009 11.3891H152.395ZM167.508 13.8777V6.13907H169.519V19.23H167.508V17.0141H167.372C167.065 17.6788 166.587 18.2442 165.94 18.7101C165.292 19.1703 164.474 19.4004 163.485 19.4004C162.667 19.4004 161.94 19.2215 161.303 18.8635C160.667 18.4999 160.167 17.9544 159.803 17.2271C159.44 16.4942 159.258 15.5709 159.258 14.4573V6.13907H161.269V14.3209C161.269 15.2754 161.536 16.0368 162.07 16.605C162.61 17.1732 163.298 17.4573 164.133 17.4573C164.633 17.4573 165.141 17.3294 165.658 17.0737C166.181 16.818 166.619 16.426 166.971 15.8976C167.329 15.3692 167.508 14.6959 167.508 13.8777ZM178.965 19.4686C178.249 19.4573 177.533 19.3209 176.817 19.0595C176.101 18.7982 175.448 18.3578 174.857 17.7385C174.266 17.1135 173.791 16.2698 173.433 15.2073C173.075 14.1391 172.896 12.7982 172.896 11.1845C172.896 9.63907 173.041 8.26975 173.331 7.07657C173.621 5.87771 174.041 4.86918 174.592 4.051C175.144 3.22714 175.808 2.60214 176.587 2.176C177.371 1.74987 178.254 1.5368 179.237 1.5368C180.215 1.5368 181.084 1.73282 181.845 2.12487C182.612 2.51123 183.237 3.051 183.72 3.74418C184.203 4.43737 184.516 5.23566 184.658 6.13907H182.578C182.385 5.35498 182.01 4.70441 181.453 4.18737C180.896 3.67032 180.158 3.4118 179.237 3.4118C177.885 3.4118 176.82 3.99987 176.041 5.176C175.269 6.35214 174.879 8.00271 174.874 10.1277H175.01C175.328 9.64475 175.706 9.23282 176.144 8.89191C176.587 8.54532 177.075 8.27828 177.609 8.09078C178.144 7.90328 178.709 7.80953 179.305 7.80953C180.305 7.80953 181.22 8.05953 182.05 8.55953C182.879 9.05384 183.544 9.7385 184.044 10.6135C184.544 11.4828 184.794 12.48 184.794 13.605C184.794 14.6845 184.553 15.6732 184.07 16.5709C183.587 17.4629 182.908 18.1732 182.033 18.7016C181.163 19.2243 180.141 19.48 178.965 19.4686ZM178.965 17.5936C179.68 17.5936 180.323 17.4146 180.891 17.0567C181.465 16.6987 181.916 16.2186 182.246 15.6163C182.581 15.0141 182.749 14.3436 182.749 13.605C182.749 12.8834 182.587 12.2271 182.263 11.6362C181.945 11.0396 181.504 10.5652 180.942 10.2129C180.385 9.86066 179.749 9.68453 179.033 9.68453C178.493 9.68453 177.99 9.79248 177.524 10.0084C177.058 10.2186 176.649 10.5084 176.297 10.8777C175.95 11.247 175.678 11.6703 175.479 12.1476C175.28 12.6192 175.18 13.1163 175.18 13.6391C175.18 14.3323 175.342 14.98 175.666 15.5823C175.996 16.1845 176.445 16.6703 177.013 17.0396C177.587 17.409 178.237 17.5936 178.965 17.5936ZM193.6 19.4686C192.6 19.4686 191.7 19.2698 190.899 18.872C190.097 18.4743 189.455 17.9288 188.972 17.2357C188.489 16.5425 188.225 15.7527 188.18 14.8663H190.225C190.305 15.6561 190.663 16.3095 191.299 16.8266C191.941 17.3379 192.708 17.5936 193.6 17.5936C194.316 17.5936 194.953 17.426 195.509 17.0908C196.072 16.7555 196.512 16.2953 196.83 15.7101C197.154 15.1192 197.316 14.4516 197.316 13.7073C197.316 12.9459 197.149 12.2669 196.813 11.6703C196.484 11.068 196.029 10.5936 195.45 10.247C194.87 9.90043 194.208 9.7243 193.464 9.71862C192.93 9.71293 192.381 9.79532 191.819 9.96578C191.256 10.1305 190.793 10.3436 190.43 10.605L188.453 10.3663L189.509 1.77543H198.578V3.65043H191.282L190.668 8.79816H190.771C191.129 8.51407 191.578 8.27828 192.117 8.09078C192.657 7.90328 193.22 7.80953 193.805 7.80953C194.873 7.80953 195.825 8.06521 196.66 8.57657C197.501 9.08225 198.16 9.77543 198.637 10.6561C199.12 11.5368 199.362 12.5425 199.362 13.6732C199.362 14.7868 199.112 15.7811 198.612 16.6561C198.117 17.5254 197.435 18.2129 196.566 18.7186C195.697 19.2186 194.708 19.4686 193.6 19.4686ZM208.202 19.4686C207.202 19.4686 206.301 19.2698 205.5 18.872C204.699 18.4743 204.057 17.9288 203.574 17.2357C203.091 16.5425 202.827 15.7527 202.781 14.8663H204.827C204.906 15.6561 205.264 16.3095 205.901 16.8266C206.543 17.3379 207.31 17.5936 208.202 17.5936C208.918 17.5936 209.554 17.426 210.111 17.0908C210.673 16.7555 211.114 16.2953 211.432 15.7101C211.756 15.1192 211.918 14.4516 211.918 13.7073C211.918 12.9459 211.75 12.2669 211.415 11.6703C211.085 11.068 210.631 10.5936 210.051 10.247C209.472 9.90043 208.81 9.7243 208.065 9.71862C207.531 9.71293 206.983 9.79532 206.421 9.96578C205.858 10.1305 205.395 10.3436 205.031 10.605L203.054 10.3663L204.111 1.77543H213.179V3.65043H205.884L205.27 8.79816H205.372C205.73 8.51407 206.179 8.27828 206.719 8.09078C207.259 7.90328 207.821 7.80953 208.406 7.80953C209.475 7.80953 210.426 8.06521 211.261 8.57657C212.102 9.08225 212.761 9.77543 213.239 10.6561C213.722 11.5368 213.963 12.5425 213.963 13.6732C213.963 14.7868 213.713 15.7811 213.213 16.6561C212.719 17.5254 212.037 18.2129 211.168 18.7186C210.298 19.2186 209.31 19.4686 208.202 19.4686ZM223.247 19.4686C222.122 19.4686 221.119 19.2754 220.238 18.8891C219.363 18.5027 218.667 17.9658 218.15 17.2783C217.639 16.5851 217.36 15.7811 217.315 14.8663H219.462C219.508 15.4288 219.701 15.9146 220.042 16.3237C220.383 16.7271 220.829 17.0396 221.38 17.2612C221.931 17.4828 222.542 17.5936 223.212 17.5936C223.962 17.5936 224.627 17.4629 225.207 17.2016C225.786 16.9402 226.241 16.5766 226.57 16.1107C226.9 15.6448 227.065 15.105 227.065 14.4913C227.065 13.8493 226.906 13.284 226.587 12.7953C226.269 12.301 225.803 11.9146 225.19 11.6362C224.576 11.3578 223.826 11.2186 222.94 11.2186H221.542V9.34362H222.94C223.633 9.34362 224.241 9.21862 224.764 8.96862C225.292 8.71862 225.704 8.36634 225.999 7.9118C226.301 7.45725 226.451 6.92316 226.451 6.30953C226.451 5.71862 226.32 5.20441 226.059 4.76691C225.798 4.32941 225.428 3.9885 224.951 3.74418C224.479 3.49987 223.923 3.37771 223.281 3.37771C222.678 3.37771 222.11 3.4885 221.576 3.71009C221.048 3.926 220.616 4.24134 220.281 4.65612C219.945 5.06521 219.764 5.55953 219.735 6.13907H217.69C217.724 5.2243 217.999 4.42316 218.516 3.73566C219.033 3.04248 219.71 2.50271 220.545 2.11634C221.386 1.72998 222.309 1.5368 223.315 1.5368C224.394 1.5368 225.32 1.75555 226.093 2.19305C226.866 2.62487 227.46 3.19589 227.874 3.90612C228.289 4.61634 228.497 5.38339 228.497 6.20725C228.497 7.19021 228.238 8.02828 227.721 8.72146C227.21 9.41464 226.514 9.89475 225.633 10.1618V10.2982C226.735 10.48 227.596 10.9487 228.215 11.7044C228.835 12.4544 229.144 13.3834 229.144 14.4913C229.144 15.4402 228.886 16.2925 228.369 17.0482C227.857 17.7982 227.158 18.3891 226.272 18.8209C225.386 19.2527 224.377 19.4686 223.247 19.4686ZM238.426 19.4686C237.71 19.4573 236.994 19.3209 236.278 19.0595C235.562 18.7982 234.908 18.3578 234.318 17.7385C233.727 17.1135 233.252 16.2698 232.894 15.2073C232.536 14.1391 232.357 12.7982 232.357 11.1845C232.357 9.63907 232.502 8.26975 232.792 7.07657C233.082 5.87771 233.502 4.86918 234.053 4.051C234.604 3.22714 235.269 2.60214 236.048 2.176C236.832 1.74987 237.715 1.5368 238.698 1.5368C239.676 1.5368 240.545 1.73282 241.306 2.12487C242.073 2.51123 242.698 3.051 243.181 3.74418C243.664 4.43737 243.977 5.23566 244.119 6.13907H242.039C241.846 5.35498 241.471 4.70441 240.914 4.18737C240.357 3.67032 239.619 3.4118 238.698 3.4118C237.346 3.4118 236.281 3.99987 235.502 5.176C234.729 6.35214 234.34 8.00271 234.335 10.1277H234.471C234.789 9.64475 235.167 9.23282 235.604 8.89191C236.048 8.54532 236.536 8.27828 237.07 8.09078C237.604 7.90328 238.17 7.80953 238.766 7.80953C239.766 7.80953 240.681 8.05953 241.511 8.55953C242.34 9.05384 243.005 9.7385 243.505 10.6135C244.005 11.4828 244.255 12.48 244.255 13.605C244.255 14.6845 244.014 15.6732 243.531 16.5709C243.048 17.4629 242.369 18.1732 241.494 18.7016C240.624 19.2243 239.602 19.48 238.426 19.4686ZM238.426 17.5936C239.141 17.5936 239.783 17.4146 240.352 17.0567C240.926 16.6987 241.377 16.2186 241.707 15.6163C242.042 15.0141 242.21 14.3436 242.21 13.605C242.21 12.8834 242.048 12.2271 241.724 11.6362C241.406 11.0396 240.965 10.5652 240.403 10.2129C239.846 9.86066 239.21 9.68453 238.494 9.68453C237.954 9.68453 237.451 9.79248 236.985 10.0084C236.519 10.2186 236.11 10.5084 235.758 10.8777C235.411 11.247 235.139 11.6703 234.94 12.1476C234.741 12.6192 234.641 13.1163 234.641 13.6391C234.641 14.3323 234.803 14.98 235.127 15.5823C235.457 16.1845 235.906 16.6703 236.474 17.0396C237.048 17.409 237.698 17.5936 238.426 17.5936Z" fill="white"/>
</svg>
